<?xml version="1.0" standalone="no"?>
<!DOCTYPE svg PUBLIC "-//W3C//DTD SVG 20010904//EN"
 "http://www.w3.org/TR/2001/REC-SVG-20010904/DTD/svg10.dtd">
<svg version="1.0" xmlns="http://www.w3.org/2000/svg"
 width="250.000000pt" height="250.000000pt" viewBox="0 0 250.000000 250.000000"
 preserveAspectRatio="xMidYMid meet">
<metadata>
Created by potrace 1.14, written by Peter Selinger 2001-2017
</metadata>
<g transform="translate(0.000000,250.000000) scale(0.100000,-0.100000)"
fill="#000000" stroke="none">
<path d="M1216 2284 c-13 -13 -16 -44 -16 -184 0 -179 5 -200 50 -200 45 0 50
21 50 200 0 179 -5 200 -50 200 -10 0 -26 -7 -34 -16z"/>
<path d="M506 1988 c-9 -12 -16 -29 -16 -36 0 -21 246 -262 268 -262 23 0 52
30 52 54 0 25 -243 266 -269 266 -11 0 -27 -10 -35 -22z"/>
<path d="M1940 2003 c-28 -11 -250 -243 -250 -261 0 -23 30 -52 54 -52 20 0
266 243 266 263 0 19 -29 57 -43 56 -7 0 -19 -3 -27 -6z"/>
<path d="M1209 1746 c-2 -2 -22 -6 -44 -9 -194 -27 -367 -195 -405 -395 -50
-255 113 -509 371 -577 69 -18 208 -13 274 10 304 106 437 461 273 730 -85
139 -238 230 -404 240 -34 2 -63 2 -65 1z m137 -110 c123 -33 212 -108 267
-224 29 -61 32 -76 32 -162 0 -90 -2 -99 -39 -172 -69 -138 -187 -217 -335
-224 -247 -11 -440 190 -418 434 15 156 130 298 277 341 25 8 50 15 55 16 27
8 116 3 161 -9z"/>
<path d="M204 1279 c-17 -19 -17 -23 -3 -47 l15 -27 176 -3 c150 -2 178 0 192
13 20 21 20 49 0 69 -13 13 -44 16 -188 16 -162 0 -174 -1 -192 -21z"/>
<path d="M1907 1282 c-22 -24 -21 -45 1 -65 16 -14 44 -17 190 -17 181 0 202
5 202 50 0 45 -21 50 -204 50 -155 0 -175 -2 -189 -18z"/>
<path d="M740 803 c-26 -10 -250 -242 -250 -259 0 -30 20 -54 46 -54 19 0 56
31 149 124 101 102 123 129 120 148 -3 13 -12 29 -22 36 -18 13 -21 13 -43 5z"/>
<path d="M1722 803 c-23 -9 -34 -41 -21 -65 18 -36 237 -248 254 -248 31 0 55
20 55 46 0 19 -29 55 -117 143 -113 113 -143 135 -171 124z"/>
<path d="M1216 584 c-24 -23 -24 -345 0 -368 20 -20 48 -20 68 0 13 13 16 44
16 180 0 95 -4 174 -10 185 -13 23 -53 25 -74 3z"/>
</g>
</svg>
